<svg width="180" height="19" viewBox="0 0 180 19" fill="none" xmlns="http://www.w3.org/2000/svg">
<g clip-path="url(#clip0_1_937)">
<path d="M17.3256 0L17.2752 0.148438C17.1732 0.471438 14.9364 7.43138 14.4588 9.18531L11.616 0H3.4776L0 18.2531H7.4076L8.694 10.9214C8.7492 10.4322 8.796 9.93106 8.8356 9.43587C8.928 9.97619 9.0792 10.5082 9.24 11.0544L12.0168 18.2531H16.716L19.8 10.6079C19.9512 10.2303 20.0628 9.83131 20.1684 9.41213L21.4944 18.2531H28.908L25.3704 0H17.3256Z" fill="black"/>
<path d="M138.678 9.67694C138.678 10.9606 138.971 13.1563 136.792 13.1563C134.725 13.1563 134.897 10.9606 134.897 9.67694V0H126.89V11.2171C126.89 16.2355 130.409 18.9988 136.795 18.9988C143.179 18.9988 146.694 16.2355 146.694 11.2171V0H138.68V9.67694H138.678Z" fill="black"/>
<path d="M152.218 0V6.31038H156.719V18.2531H164.731V6.31038H169.23V0H152.218Z" fill="black"/>
<path d="M110.71 0.00244141L110.66 0.150879C110.558 0.470316 108.32 7.43975 107.844 9.19013L105 0.00244141H96.8664L93.384 18.2614H100.795L102.082 10.9263C102.138 10.4406 102.184 9.93944 102.223 9.43832C102.316 9.97269 102.46 10.4916 102.628 11.0593L105.406 18.2614H110.101L113.184 10.6128C113.335 10.2328 113.447 9.83375 113.552 9.41694L114.882 18.2614H122.292L118.758 0.00244141H110.71Z" fill="black"/>
<path d="M39.5316 0L32.8128 18.2531H40.2564L41.0124 16.036H47.6832L48.4008 18.2531H56.2092L49.3212 0H39.5316ZM46.2552 11.5793H42.4644L44.3928 5.70119L46.2552 11.5793Z" fill="black"/>
<path d="M77.4408 0.00244141L77.3916 0.150879C77.2896 0.470316 75.0492 7.43975 74.5752 9.19013L71.7288 0.00244141H63.594L60.1128 18.2614H67.5192L68.8068 10.9263C68.862 10.4406 68.9088 9.93588 68.9484 9.43832C69.0396 9.97269 69.1848 10.4916 69.3528 11.0593L72.1296 18.2614H76.8288L79.9128 10.6092C80.0604 10.2328 80.172 9.84325 80.2776 9.41694L81.6072 18.2614H89.0136L85.4892 0.00244141H77.4408Z" fill="black"/>
<path d="M176.668 2.96756C177.134 2.96756 177.546 2.926 177.546 2.42131C177.546 1.99856 177.095 1.95106 176.724 1.95106H175.973V2.96756H176.668ZM175.976 4.94238H175.348V1.46419H176.786C177.704 1.46419 178.168 1.7575 178.168 2.46406C178.168 3.09225 177.746 3.35469 177.181 3.41525L178.243 4.94238H177.54L176.562 3.45444H175.976V4.94238ZM176.651 0.54625C175.166 0.54625 174.012 1.615 174.012 3.14331C174.012 4.57188 175.022 5.73681 176.651 5.73681C178.115 5.73681 179.27 4.67994 179.27 3.14331C179.27 1.615 178.115 0.54625 176.651 0.54625ZM176.651 6.28663C174.68 6.28663 173.278 4.93406 173.278 3.14331C173.278 1.25281 174.834 0 176.651 0C178.445 0 180.001 1.25281 180.001 3.14331C180.001 5.03381 178.445 6.28663 176.651 6.28663Z" fill="black"/>
</g>
<defs>
<clipPath id="clip0_1_937">
<rect width="180" height="19" fill="white"/>
</clipPath>
</defs>
</svg>
